<svg xmlns="http://www.w3.org/2000/svg" width="24" height="24" fill="none" viewBox="0 0 24 24">
  <g clip-path="url(#a)">
    <path fill="color(display-p3 .9333 .6863 .0431)" d="M9 15.5h-.5v-2H9a1 1 0 1 1 0 2Zm5 0h.5a1 1 0 1 0 0-2H14v2Z"/>
    <path fill="color(display-p3 .9333 .6863 .0431)" d="m4.583 12.997-2.704-2.704A3 3 0 0 1 1 8.172V3a3 3 0 0 1 3-3h16a3 3 0 0 1 3 3v5.172a3 3 0 0 1-.879 2.12l-2.704 2.705a8 8 0 1 1-14.835 0ZM4 2a.998.998 0 0 0-.749.337L4.914 4h14.172l1.663-1.663A.997.997 0 0 0 20 2H4Zm5.36 6.446A7.988 7.988 0 0 1 12 8c.925 0 1.813.157 2.64.446L17.086 6H6.914L9.36 8.446Zm-1.878.95L3 4.915v3.258a1 1 0 0 0 .293.707l2.313 2.313a8.044 8.044 0 0 1 1.876-1.795Zm10.912 1.796 2.313-2.313A1 1 0 0 0 21 8.172V4.914l-4.483 4.483a8.041 8.041 0 0 1 1.877 1.795ZM7 20h1.5v-3H9a2.5 2.5 0 0 0 0-5H7v8Zm7.5-8h-2v8H14v-3h.486l1.16 3h1.608l-1.332-3.444A2.5 2.5 0 0 0 14.5 12Z"/>
  </g>
  <defs>
    <clipPath id="a">
      <path fill="#fff" d="M0 0h24v24H0z"/>
    </clipPath>
  </defs>
</svg>
